<svg xmlns="http://www.w3.org/2000/svg" width="790.261" height="587.97" viewBox="0 0 790.261 587.97">
  <g id="Grupo_19" data-name="Grupo 19" transform="translate(39 -311.03)" opacity="0.2">
    <g id="Grupo_18" data-name="Grupo 18">
      <g id="Company-rafiki" transform="translate(-39 256.019)">
        <g id="freepik--background-complete--inject-2" transform="translate(0 55.011)">
          <rect id="Retângulo_625" data-name="Retângulo 625" width="52.347" height="0.395" transform="translate(658.73 542.894)" fill="#ebebeb"/>
          <rect id="Retângulo_626" data-name="Retângulo 626" width="13.735" height="0.395" transform="translate(509.766 547.193)" fill="#ebebeb"/>
          <rect id="Retângulo_627" data-name="Retângulo 627" width="30.33" height="0.395" transform="translate(626.82 528.227)" fill="#ebebeb"/>
          <rect id="Retângulo_628" data-name="Retângulo 628" width="68.263" height="0.395" transform="translate(82.914 530.882)" fill="#ebebeb"/>
          <rect id="Retângulo_629" data-name="Retângulo 629" width="10.005" height="0.395" transform="translate(165.259 530.882)" fill="#ebebeb"/>
          <rect id="Retângulo_630" data-name="Retângulo 630" width="148.063" height="0.395" transform="translate(207.791 537.552)" fill="#ebebeb"/>
          <path id="Caminho_52" data-name="Caminho 52" d="M352.4,501.972H47.219a9.025,9.025,0,0,1-9.009-9.025v-429A9.025,9.025,0,0,1,47.219,55H352.4a9.025,9.025,0,0,1,9.025,9.025V492.947A9.025,9.025,0,0,1,352.4,501.972ZM47.219,55.316a8.63,8.63,0,0,0-8.614,8.63v429a8.63,8.63,0,0,0,8.614,8.63H352.4a8.646,8.646,0,0,0,8.63-8.63v-429a8.645,8.645,0,0,0-8.63-8.63Z" transform="translate(22.182 -55)" fill="#ebebeb"/>
          <path id="Caminho_53" data-name="Caminho 53" d="M568.724,502.261h-305.2a9.041,9.041,0,0,1-9.025-9.025v-429a9.041,9.041,0,0,1,9.025-9.025h305.2a9.025,9.025,0,0,1,8.993,9.025v429a9.025,9.025,0,0,1-8.993,9.025ZM263.525,55.605a8.645,8.645,0,0,0-8.63,8.63v429a8.646,8.646,0,0,0,8.63,8.63h305.2a8.646,8.646,0,0,0,8.63-8.63v-429a8.646,8.646,0,0,0-8.63-8.63Z" transform="translate(147.743 -54.878)" fill="#ebebeb"/>
          <rect id="Retângulo_631" data-name="Retângulo 631" width="790.261" height="0.395" transform="translate(0 517.463)" fill="#ebebeb"/>
          <path id="Caminho_54" data-name="Caminho 54" d="M76.662,169.58H220c18.366,0,22.791-25.7,5.453-31.737l-.68-.221c19.188-15.995-22.9-49.692-68.626-3.035,3.572-15.552-37.079-9.926-49.5,11.3C102.219,131.948,63.464,156.162,76.662,169.58Z" transform="translate(42.921 -22.592)" fill="#e6e6e6"/>
          <path id="Caminho_55" data-name="Caminho 55" d="M320.492,126.753H406.44s20.152-7.587,17.544-27.691-33.033-3.351-33.033-3.351,9.214-28.054-20.247-20.088-32.338,35.767-32.338,35.767S299.66,104.626,320.492,126.753Z" transform="translate(182.478 -43.855)" fill="#ebebeb"/>
          <path id="Caminho_56" data-name="Caminho 56" d="M369.682,155.974h56.741s13.308-5.01,11.585-18.287-21.811-2.213-21.811-2.213,6.085-18.508-13.371-13.261a28.781,28.781,0,0,0-21.337,23.613S355.932,141.386,369.682,155.974Z" transform="translate(212.25 -16.524)" fill="#ebebeb"/>
          <path id="Caminho_57" data-name="Caminho 57" d="M368.332,366.694l-.158-16.785v-.932l-.142-14.968v-.948l-.142-14.225V317.9l-.126-13.545v-.885l-.126-12.929v-.822l-.126-12.36v-.774l-.111-11.807v-.759l-.095-9.768a7.111,7.111,0,0,1-1.581.743v8.25H355.261l8.44-7.729a16.986,16.986,0,0,1-2.639.316l-6.954,6.322.126-7.46a5.817,5.817,0,0,1-1.581-.948l-.19,10.242v.759l-.19,11.806v.806l-.237,12.312v.822l-.221,12.9v.885l-.237,13.545v.933l-.253,14.225v.964l-.269,14.952v1.012l-.284,16.769-1.612,72.388,20.167.237Zm-2.1-3.161L354.076,350.4h12.075Zm-.19-14.7H354.012l11.933-12.549Zm.126-18.445L354.6,318.536H366.1Zm-.142-13.482H354.581l11.38-11.4Zm-.079-15.695L354.882,290.45H365.85Zm0-12.439H355.008l10.842-10.4Zm-.19-23.945v9.847l-10.542-9.8Zm-11.885,2.244,10.542,9.831H353.728Zm-.158,11.538H364.4l-10.922,10.3Zm-.221,14.4,11.064,10.779H353.4Zm-.158,12.423h11.206l-11.364,11.348Zm-.221,15.695,11.585,11.9H352.953Zm-.111,13.5h11.712l-11.949,12.486Zm-.079,16.532,12.154,13.182H352.732Z" transform="translate(202.695 60.379)" fill="#ebebeb"/>
          <path id="Caminho_58" data-name="Caminho 58" d="M365.906,253.137H365.1l-.585-.537-4.742,4.425a18.636,18.636,0,0,0,2.624-.316l1.976-1.8v1.217a7.712,7.712,0,0,0,1.581-.743Zm-14.636.095V255a7,7,0,0,0,1.581.948v-2.718Z" transform="translate(203.92 59.711)" fill="#ebebeb"/>
          <path id="Caminho_59" data-name="Caminho 59" d="M369.466,256.568a2.845,2.845,0,0,1-.838,2.4l-.569.537a9.052,9.052,0,0,1-2.529,1.391,10.662,10.662,0,0,1-1.976.585,18.631,18.631,0,0,1-2.624.316h-1.185a14.43,14.43,0,0,1-5.642-1.138,7,7,0,0,1-1.581-.948l-.142-.111-.522-.506a2.624,2.624,0,0,1-.759-2.323l1.2-6.733H349.14L360.2,244.43l11.522,5.247h-3.24Z" transform="translate(202.684 54.968)" fill="#ebebeb"/>
          <path id="Caminho_60" data-name="Caminho 60" d="M394.12,257.45l.427,179.5H496.3l.569-179.5Z" transform="translate(228.796 62.527)" fill="#ebebeb"/>
          <path id="Caminho_61" data-name="Caminho 61" d="M406.69,243l.047,40.019h62.984L469.8,243Z" transform="translate(236.093 54.138)" fill="#ebebeb"/>
          <path id="Caminho_62" data-name="Caminho 62" d="M411.534,272.72H398.226l-.016-11.98h13.308Z" transform="translate(231.17 64.437)" fill="#fafafa"/>
          <rect id="Retângulo_632" data-name="Retângulo 632" width="13.308" height="11.996" transform="translate(654.921 325.161)" fill="#fafafa"/>
          <rect id="Retângulo_633" data-name="Retângulo 633" width="13.308" height="11.996" transform="translate(680.462 325.161)" fill="#fafafa"/>
          <path id="Caminho_63" data-name="Caminho 63" d="M459.988,272.72H446.68l.032-11.98H460.02Z" transform="translate(259.308 64.437)" fill="#f0f0f0"/>
          <path id="Caminho_64" data-name="Caminho 64" d="M411.313,286.446H398.322l-.032-11.7H411.3Z" transform="translate(231.216 72.57)" fill="#f0f0f0"/>
          <rect id="Retângulo_634" data-name="Retângulo 634" width="13.008" height="11.696" transform="translate(655.016 347.32)" fill="#f0f0f0"/>
          <rect id="Retângulo_635" data-name="Retângulo 635" width="13.008" height="11.696" transform="translate(680.526 347.32)" fill="#fafafa"/>
          <path id="Caminho_65" data-name="Caminho 65" d="M459.7,286.446H446.69l.032-11.7h13.008Z" transform="translate(259.314 72.57)" fill="#fafafa"/>
          <path id="Caminho_66" data-name="Caminho 66" d="M411.133,299.821H398.442l-.032-11.411h12.707Z" transform="translate(231.286 80.5)" fill="#f0f0f0"/>
          <rect id="Retângulo_636" data-name="Retângulo 636" width="12.707" height="11.411" transform="translate(655.19 368.91)" fill="#fafafa"/>
          <rect id="Retângulo_637" data-name="Retângulo 637" width="12.707" height="11.411" transform="translate(680.652 368.91)" fill="#fafafa"/>
          <rect id="Retângulo_638" data-name="Retângulo 638" width="13.561" height="12.233" transform="translate(654.589 307.759)" fill="#fafafa"/>
          <rect id="Retângulo_639" data-name="Retângulo 639" width="13.577" height="12.233" transform="translate(680.146 307.759)" fill="#f0f0f0"/>
          <path id="Caminho_67" data-name="Caminho 67" d="M459.452,299.821H446.76l.016-11.411h12.707Z" transform="translate(259.354 80.5)" fill="#f0f0f0"/>
          <path id="Caminho_68" data-name="Caminho 68" d="M411.009,312.893H398.6l-.032-11.143h12.423Z" transform="translate(231.379 88.244)" fill="#fafafa"/>
          <rect id="Retângulo_640" data-name="Retângulo 640" width="12.407" height="11.143" transform="translate(655.411 389.994)" fill="#f0f0f0"/>
          <path id="Caminho_69" data-name="Caminho 69" d="M443.187,312.893H430.78l.016-11.143H443.2Z" transform="translate(250.078 88.244)" fill="#f0f0f0"/>
          <path id="Caminho_70" data-name="Caminho 70" d="M459.277,312.893H446.87l.032-11.143h12.407Z" transform="translate(259.418 88.244)" fill="#fafafa"/>
          <path id="Caminho_71" data-name="Caminho 71" d="M411.881,328.157h-13.83l-.032-12.407h13.845Z" transform="translate(231.06 96.371)" fill="#f0f0f0"/>
          <path id="Caminho_72" data-name="Caminho 72" d="M427.93,328.157H414.116L414.1,315.75h13.845Z" transform="translate(240.394 96.371)" fill="#fafafa"/>
          <path id="Caminho_73" data-name="Caminho 73" d="M444,328.157H430.17V315.75h13.845Z" transform="translate(249.723 96.371)" fill="#fafafa"/>
          <path id="Caminho_74" data-name="Caminho 74" d="M460.06,328.157H446.23l.032-12.407h13.83Z" transform="translate(259.047 96.371)" fill="#f0f0f0"/>
          <path id="Caminho_75" data-name="Caminho 75" d="M411.815,340.547H398.3l-.032-12.107H411.8Z" transform="translate(231.205 103.738)" fill="#f0f0f0"/>
          <rect id="Retângulo_641" data-name="Retângulo 641" width="13.513" height="12.107" transform="translate(654.874 432.178)" fill="#fafafa"/>
          <rect id="Retângulo_642" data-name="Retângulo 642" width="13.513" height="12.107" transform="translate(680.273 432.178)" fill="#f0f0f0"/>
          <path id="Caminho_76" data-name="Caminho 76" d="M459.974,340.547H446.46l.032-12.107h13.529Z" transform="translate(259.18 103.738)" fill="#fafafa"/>
          <path id="Caminho_77" data-name="Caminho 77" d="M411.507,354.5H398.326l-.016-11.791h13.182Z" transform="translate(231.228 112.022)" fill="#fafafa"/>
          <rect id="Retângulo_643" data-name="Retângulo 643" width="13.182" height="11.791" transform="translate(654.89 454.732)" fill="#fafafa"/>
          <rect id="Retângulo_644" data-name="Retângulo 644" width="13.182" height="11.791" transform="translate(680.225 454.732)" fill="#f0f0f0"/>
          <path id="Caminho_78" data-name="Caminho 78" d="M459.576,354.5H446.41l.016-11.791h13.182Z" transform="translate(259.151 112.022)" fill="#f0f0f0"/>
          <path id="Caminho_79" data-name="Caminho 79" d="M411.391,367.18H398.526l-.016-11.49h12.865Z" transform="translate(231.344 119.557)" fill="#f0f0f0"/>
          <path id="Caminho_80" data-name="Caminho 80" d="M459.43,367.18H446.58l.016-11.49h12.865Z" transform="translate(259.25 119.557)" fill="#fafafa"/>
          <path id="Caminho_81" data-name="Caminho 81" d="M452.867,355.69H414.46l.079,2.892H415.6l.016,21.337h3.841l-.016-21.337h28.513l-.032,21.337h3.841l.032-21.337h1.154Z" transform="translate(240.603 119.557)" fill="#f5f5f5"/>
          <path id="Caminho_82" data-name="Caminho 82" d="M431.955,378.857H417.73V357.52h14.24Z" transform="translate(242.502 120.62)" fill="#e6e6e6"/>
          <path id="Caminho_83" data-name="Caminho 83" d="M440.75,378.857H426.51l.016-21.337h14.256Z" transform="translate(247.599 120.62)" fill="#ebebeb"/>
          <path id="Caminho_84" data-name="Caminho 84" d="M441.4,293.58l.285,122.4H314.09l-1.17-122.4Z" transform="translate(181.657 83.501)" fill="#f5f5f5"/>
          <path id="Caminho_85" data-name="Caminho 85" d="M378.777,316.038h15.932l-.047-14.288H378.73Z" transform="translate(219.861 88.244)" fill="#e6e6e6"/>
          <path id="Caminho_86" data-name="Caminho 86" d="M358.679,316.038h15.932l-.063-14.288H358.6Z" transform="translate(208.175 88.244)" fill="#e6e6e6"/>
          <path id="Caminho_87" data-name="Caminho 87" d="M338.575,316.038h15.932l-.095-14.288H338.48Z" transform="translate(196.495 88.244)" fill="#e6e6e6"/>
          <path id="Caminho_88" data-name="Caminho 88" d="M318.476,316.038h15.932l-.126-14.288H318.35Z" transform="translate(184.809 88.244)" fill="#e6e6e6"/>
          <path id="Caminho_89" data-name="Caminho 89" d="M378.4,334.089h17.164l-.047-15.379H378.34Z" transform="translate(219.635 98.09)" fill="#e6e6e6"/>
          <path id="Caminho_90" data-name="Caminho 90" d="M358.345,334.089h17.164l-.079-15.379H358.25Z" transform="translate(207.972 98.09)" fill="#e6e6e6"/>
          <path id="Caminho_91" data-name="Caminho 91" d="M338.271,334.089h17.164l-.095-15.379H338.16Z" transform="translate(196.31 98.09)" fill="#e6e6e6"/>
          <path id="Caminho_92" data-name="Caminho 92" d="M318.212,334.089h17.164l-.126-15.379H318.07Z" transform="translate(184.647 98.09)" fill="#e6e6e6"/>
          <path id="Caminho_93" data-name="Caminho 93" d="M378.677,350.054h16.659l-.032-14.9H378.63Z" transform="translate(219.803 107.633)" fill="#e6e6e6"/>
          <path id="Caminho_94" data-name="Caminho 94" d="M358.639,350.054H375.3l-.063-14.9H358.56Z" transform="translate(208.152 107.633)" fill="#e6e6e6"/>
          <path id="Caminho_95" data-name="Caminho 95" d="M338.6,350.054h16.659l-.095-14.9H338.49Z" transform="translate(196.501 107.633)" fill="#e6e6e6"/>
          <path id="Caminho_96" data-name="Caminho 96" d="M318.546,350.054h16.659l-.111-14.9H318.42Z" transform="translate(184.85 107.633)" fill="#e6e6e6"/>
          <path id="Caminho_97" data-name="Caminho 97" d="M378.913,366.456h16.153l-.032-14.446H378.85Z" transform="translate(219.931 117.421)" fill="#e6e6e6"/>
          <path id="Caminho_98" data-name="Caminho 98" d="M318.856,366.456h16.169L334.9,352.01H318.73Z" transform="translate(185.03 117.421)" fill="#e6e6e6"/>
          <path id="Caminho_99" data-name="Caminho 99" d="M338.08,352.01h49.992l.016,4.362H384.9l.126,25.683h-4.631l-.126-25.683h-34.3l.174,25.683h-4.615l-.19-25.683h-3.209Z" transform="translate(196.263 117.421)" fill="#f5f5f5"/>
          <path id="Caminho_100" data-name="Caminho 100" d="M354.148,380.453h17.117l-.126-25.683H353.99Z" transform="translate(205.499 119.023)" fill="#e6e6e6"/>
          <path id="Caminho_101" data-name="Caminho 101" d="M343.174,380.453h17.117l-.142-25.683H343Z" transform="translate(199.119 119.023)" fill="#ebebeb"/>
          <path id="Caminho_102" data-name="Caminho 102" d="M153.878,229.62v-5.753a.7.7,0,0,0-1.375,0v6.322a.727.727,0,0,0,.68.7,2.766,2.766,0,1,1-2.766,2.75c0-.869-1.454-.869-1.375,0,.348,3.43,4.346,5.69,7.065,2.94a4.141,4.141,0,0,0-2.229-6.954Z" transform="translate(86.52 42.688)" fill="#ebebeb"/>
          <path id="Caminho_103" data-name="Caminho 103" d="M93.4,201.37v12.455L80.265,200.69l-.648.648H78.7V319.877H95.232V201.338ZM80.533,291.807,92.1,303.377H80.533Zm0-29.414L92.1,273.963H80.533Zm0-29.4L92.1,244.565H80.533Zm0-29.414L92.1,215.168H80.533Zm11.569,13.4L80.533,228.57V216.985Zm1.3,1.3v11.585H81.829ZM92.1,246.4,80.533,257.968V246.4Zm1.3,1.3v11.569H81.829Zm-1.3,28.1L80.533,287.382V275.8Zm1.3,1.249V288.63H81.829Zm-1.3,28.118L80.533,316.732V305.163ZM81.829,318.139,93.4,306.506v11.633ZM93.4,302.081,81.829,290.511H93.4Zm0-29.414L81.829,261.1H93.4Zm0-29.4L81.829,231.7H93.4Z" transform="translate(45.687 29.576)" fill="#f0f0f0"/>
          <path id="Caminho_104" data-name="Caminho 104" d="M79.86,176.42v23.044h1.8v-8.8l9.483,9.483.648-.648h.932V176.42Zm9.7,1.833-7.9,7.9v-7.9Zm1.3,18.966-7.9-7.9h7.9Zm-7.9-9.72,7.9-7.9v7.9Z" transform="translate(46.361 15.487)" fill="#f0f0f0"/>
          <rect id="Retângulo_645" data-name="Retângulo 645" width="22.048" height="22.048" transform="translate(73.984 230.946)" fill="#e6e6e6"/>
          <path id="Caminho_105" data-name="Caminho 105" d="M212.944,249.777h-1.233v-42.39l-102.687-34.06h-6.78L47.258,207.45l-.648-1.027,55.271-34.313h7.349l.095.032L212.944,206.5Z" transform="translate(27.058 12.985)" fill="#e6e6e6"/>
          <path id="Caminho_106" data-name="Caminho 106" d="M200.6,206.467h1.264l12.9-12.9H46.23v12.85H200.6Zm1.833-11.064h7.9l-7.9,7.9Zm-154.37,9.183v-7.9l7.9,7.9Zm9.2-1.3-7.9-7.9h7.9Zm1.833-7.9H67l-7.9,7.9Zm9.2,9.183h-7.9l7.9-7.9Zm1.833,0v-7.9l7.9,7.9Zm9.183-1.3-7.9-7.9h7.9Zm1.833-7.9h7.9l-7.9,7.9Zm9.2,9.183h-7.9l7.9-7.9Zm1.833,0v-7.9l7.9,7.9Zm9.2-1.3-7.9-7.9h7.9Zm1.833-7.9h7.9l-7.9,7.9Zm9.183,9.183h-7.9l7.9-7.9Zm1.833,0v-7.9l7.9,7.9Zm9.2-1.3-7.9-7.9h7.9Zm1.833-7.9h7.9l-7.9,7.9Zm9.183,9.183h-7.9l7.9-7.9Zm1.833,0v-7.9l7.9,7.9Zm9.2-1.3-7.9-7.9h7.9Zm1.833-7.9h7.9l-7.9,7.9Zm9.2,9.183h-7.9l7.9-7.9Zm1.833,0v-7.9l7.9,7.9Zm9.183-1.3-7.9-7.9h7.9Zm1.833-7.9h7.9l-7.9,7.9Zm9.2,9.183h-7.9l7.9-7.9Zm1.833-9.183h7.9l-7.9,7.9Zm9.2,9.183h-7.9l7.9-7.9Zm1.833,0v-7.9l7.9,7.9Zm1.3-9.183h7.9v7.9Z" transform="translate(26.838 25.443)" fill="#f0f0f0"/>
          <path id="Caminho_107" data-name="Caminho 107" d="M106.778,212.017H72.86l1.249-14.225a7.444,7.444,0,0,1,7.428-6.812H97.69a7.476,7.476,0,0,1,7.413,6.607Z" transform="translate(42.297 23.939)" fill="#f0f0f0"/>
          <rect id="Retângulo_646" data-name="Retângulo 646" width="6.512" height="6.512" transform="translate(120.625 220.799)" fill="#fafafa"/>
          <rect id="Retângulo_647" data-name="Retângulo 647" width="6.512" height="6.512" transform="translate(128.86 220.799)" fill="#fafafa"/>
          <rect id="Retângulo_648" data-name="Retângulo 648" width="6.512" height="6.512" transform="translate(137.095 220.799)" fill="#fafafa"/>
          <path id="Caminho_108" data-name="Caminho 108" d="M90,175.821a4.441,4.441,0,1,1-4.441-4.441A4.441,4.441,0,0,1,90,175.821Z" transform="translate(47.092 12.561)" fill="#e6e6e6"/>
          <path id="Caminho_109" data-name="Caminho 109" d="M153.053,228.837h0a3.793,3.793,0,0,1-3.793-3.793V221.25h7.587v3.793A3.793,3.793,0,0,1,153.053,228.837Z" transform="translate(86.649 41.512)" fill="#e6e6e6"/>
          <path id="Caminho_110" data-name="Caminho 110" d="M38.04,257.45l2.94,179.5H142.75l-1.944-179.5Z" transform="translate(22.083 62.527)" fill="#f5f5f5"/>
          <path id="Caminho_111" data-name="Caminho 111" d="M42.1,260.74l.364,21.843.095,5.99.095,6.006H55.977l-.095-6.006-.079-5.99-.348-21.843Z" transform="translate(24.44 64.437)" fill="#e6e6e6"/>
          <path id="Caminho_112" data-name="Caminho 112" d="M58.26,260.74l.332,21.843.079,5.99.095,6.006H72.09l-.079-6.006-.079-5.99-.3-21.843Z" transform="translate(33.821 64.437)" fill="#e6e6e6"/>
          <path id="Caminho_113" data-name="Caminho 113" d="M74.42,260.74l.3,21.843.079,5.99.079,6.006H88.2l-.063-6.006-.079-5.99-.269-21.843Z" transform="translate(43.203 64.437)" fill="#e6e6e6"/>
          <path id="Caminho_114" data-name="Caminho 114" d="M90.59,260.74l.253,21.843.111,9.262.032,2.734h13.34l-.032-2.734-.111-9.262-.237-21.843Z" transform="translate(52.59 64.437)" fill="#e6e6e6"/>
          <path id="Caminho_115" data-name="Caminho 115" d="M42.61,288.41l.364,21.827.095,5.99.095,5.99H56.5l-.079-5.99-.095-5.99L56,288.41Z" transform="translate(24.736 80.5)" fill="#e6e6e6"/>
          <path id="Caminho_116" data-name="Caminho 116" d="M58.73,288.41l.316,21.827.126,8.44.047,3.54H72.575l-.047-3.54-.111-8.44L72.1,288.41Z" transform="translate(34.094 80.5)" fill="#e6e6e6"/>
          <path id="Caminho_117" data-name="Caminho 117" d="M74.84,288.41l.3,21.827.079,5.99.079,5.99H88.654l-.079-5.99-.079-5.99-.269-21.827Z" transform="translate(43.446 80.5)" fill="#e6e6e6"/>
          <path id="Caminho_118" data-name="Caminho 118" d="M90.96,288.41l.269,21.827.063,5.99.079,5.99h13.34l-.063-5.99-.063-5.99-.237-21.827Z" transform="translate(52.804 80.5)" fill="#e6e6e6"/>
          <path id="Caminho_119" data-name="Caminho 119" d="M43.09,315.75l.348,21.732.111,5.974.095,5.959H56.967l-.095-5.959-.095-5.974-.316-21.732Z" transform="translate(25.015 96.371)" fill="#e6e6e6"/>
          <path id="Caminho_120" data-name="Caminho 120" d="M59.17,315.75l.316,21.732.079,5.974.095,5.959H72.984l-.079-5.959-.079-5.974-.3-21.732Z" transform="translate(34.35 96.371)" fill="#e6e6e6"/>
          <path id="Caminho_121" data-name="Caminho 121" d="M75.24,315.75l.284,21.732.079,5.974.079,5.959h13.34l-.079-5.959-.079-5.974L88.6,315.75Z" transform="translate(43.679 96.371)" fill="#e6e6e6"/>
          <path id="Caminho_122" data-name="Caminho 122" d="M91.32,315.75l.253,21.732.095,8.25.047,3.683h13.324l-.032-3.683-.095-8.25-.237-21.732Z" transform="translate(53.013 96.371)" fill="#e6e6e6"/>
          <path id="Caminho_123" data-name="Caminho 123" d="M126.559,342.71H43.36l.19,11.791h89.742l-.126-11.791Z" transform="translate(25.171 112.022)" fill="#e6e6e6"/>
          <path id="Caminho_124" data-name="Caminho 124" d="M98.128,355.69H59.722l-.032,2.892h1.154l.316,21.337H65l-.316-21.337H93.2l.269,21.337h3.825l-.253-21.337H98.1Z" transform="translate(34.651 119.557)" fill="#fafafa"/>
          <path id="Caminho_125" data-name="Caminho 125" d="M77.5,378.857H63.276L62.96,357.52H77.216Z" transform="translate(36.55 120.62)" fill="#e6e6e6"/>
          <path id="Caminho_126" data-name="Caminho 126" d="M86.269,378.857H72.044L71.76,357.52H86Z" transform="translate(41.658 120.62)" fill="#e6e6e6"/>
          <path id="Caminho_127" data-name="Caminho 127" d="M199.949,264,201.1,433.148h-95.89L103.11,264Z" transform="translate(59.858 66.329)" fill="#e6e6e6"/>
          <path id="Caminho_128" data-name="Caminho 128" d="M145.254,344.58h28.7l.032,5.421.032,5.421.158,19.63H162.023l-.158-20.183H138.5l-.095-10.289Z" transform="translate(80.35 113.108)" fill="#f0f0f0"/>
          <path id="Caminho_129" data-name="Caminho 129" d="M116.476,344.58H143.44l.111,10.289h-23.06l.237,20.183H108.574l-.221-19.63-.095-7.839-.047-3Z" transform="translate(62.818 113.108)" fill="#f0f0f0"/>
          <path id="Caminho_130" data-name="Caminho 130" d="M124.3,356.6h33.049l.032,2.892h.364l.158,19.9h-3.572l-.174-19.9H127.568l.205,19.9H124.2l-.221-19.9h.348Z" transform="translate(71.973 120.086)" fill="#f5f5f5"/>
          <path id="Caminho_131" data-name="Caminho 131" d="M134.76,378.329h13.276l-.174-19.9H134.57Z" transform="translate(78.121 121.148)" fill="#ebebeb"/>
          <path id="Caminho_132" data-name="Caminho 132" d="M126.545,378.329h13.276l-.19-19.9H126.34Z" transform="translate(73.343 121.148)" fill="#e0e0e0"/>
          <path id="Caminho_133" data-name="Caminho 133" d="M137.31,268.32h36.842l.221,31.753H137.61Z" transform="translate(79.712 68.837)" fill="#f0f0f0"/>
          <path id="Caminho_134" data-name="Caminho 134" d="M107.09,268.32h36.842l.3,31.753H107.469Z" transform="translate(62.168 68.837)" fill="#f0f0f0"/>
          <path id="Caminho_135" data-name="Caminho 135" d="M137.96,293.58h35.261l.237,30.346h-35.23Z" transform="translate(80.089 83.501)" fill="#f0f0f0"/>
          <path id="Caminho_136" data-name="Caminho 136" d="M107.79,293.58h35.261l.316,30.346h-35.23Z" transform="translate(62.575 83.501)" fill="#f0f0f0"/>
          <path id="Caminho_137" data-name="Caminho 137" d="M138.19,319.69h35.467l.221,30.425h-35.42Z" transform="translate(80.222 98.659)" fill="#f0f0f0"/>
          <path id="Caminho_138" data-name="Caminho 138" d="M108.11,319.69h35.467l.3,30.425h-35.42Z" transform="translate(62.76 98.659)" fill="#f0f0f0"/>
        </g>
        <g id="freepik--Shadow--inject-2" transform="translate(88.683 607.198)">
          <ellipse id="freepik--path--inject-2" cx="306.448" cy="17.892" rx="306.448" ry="17.892" transform="translate(0 0)" fill="#f5f5f5"/>
        </g>
      </g>
    </g>
    <g id="freepik--Company--inject-2" transform="translate(227.49 406.078)">
      <path id="Caminho_139" data-name="Caminho 139" d="M160.83,84.62l5.37,6.94h246l5.414-6.94Z" transform="translate(-160.772 -63.513)" fill="#407bff"/>
      <g id="Grupo_1" data-name="Grupo 1" transform="translate(0.058 21.107)" opacity="0.4">
        <path id="Caminho_140" data-name="Caminho 140" d="M160.83,84.62l5.37,6.94h246l5.414-6.94Z" transform="translate(-160.83 -84.62)"/>
      </g>
      <rect id="Retângulo_649" data-name="Retângulo 649" width="246.562" height="437.089" transform="translate(4.924 12.166)" fill="#407bff"/>
      <g id="Grupo_2" data-name="Grupo 2" transform="translate(4.924 12.166)">
        <rect id="Retângulo_650" data-name="Retângulo 650" width="246.562" height="437.089" fill="#ebebeb"/>
      </g>
      <g id="Grupo_3" data-name="Grupo 3" transform="translate(4.957 17.738)" opacity="0.8">
        <path id="Caminho_141" data-name="Caminho 141" d="M174.192,87.463a4.478,4.478,0,0,1-4.406,5.14,5.759,5.759,0,0,1-5.5-5.14,4.492,4.492,0,0,1,4.42-5.183A5.759,5.759,0,0,1,174.192,87.463Z" transform="translate(-164.233 -82.28)" fill="#f0f0f0"/>
        <path id="Caminho_142" data-name="Caminho 142" d="M180.5,87.463a4.521,4.521,0,0,1-4.463,5.14,5.759,5.759,0,0,1-5.442-5.14,4.521,4.521,0,0,1,4.449-5.183,5.759,5.759,0,0,1,5.457,5.183Z" transform="translate(-161.456 -82.28)" fill="#f0f0f0"/>
        <path id="Caminho_143" data-name="Caminho 143" d="M186.8,87.463a4.55,4.55,0,0,1-4.492,5.14,5.644,5.644,0,0,1-5.414-5.14,4.564,4.564,0,0,1,4.492-5.183,5.644,5.644,0,0,1,5.414,5.183Z" transform="translate(-158.684 -82.28)" fill="#f0f0f0"/>
        <path id="Caminho_144" data-name="Caminho 144" d="M193.1,87.463a4.607,4.607,0,0,1-4.535,5.14,5.6,5.6,0,0,1-5.37-5.14,4.622,4.622,0,0,1,4.55-5.183,5.586,5.586,0,0,1,5.356,5.183Z" transform="translate(-155.911 -82.28)" fill="#f0f0f0"/>
        <path id="Caminho_145" data-name="Caminho 145" d="M199.405,87.463a4.651,4.651,0,0,1-4.578,5.14,5.543,5.543,0,0,1-5.327-5.14,4.651,4.651,0,0,1,4.579-5.183,5.529,5.529,0,0,1,5.327,5.183Z" transform="translate(-153.135 -82.28)" fill="#f0f0f0"/>
        <path id="Caminho_146" data-name="Caminho 146" d="M205.7,87.463a4.694,4.694,0,0,1-4.622,5.14,5.486,5.486,0,0,1-5.284-5.14,4.694,4.694,0,0,1,4.622-5.183,5.471,5.471,0,0,1,5.284,5.183Z" transform="translate(-150.362 -82.28)" fill="#f0f0f0"/>
        <path id="Caminho_147" data-name="Caminho 147" d="M212.033,87.463a4.737,4.737,0,0,1-4.665,5.14,5.428,5.428,0,0,1-5.241-5.14,4.723,4.723,0,0,1,4.65-5.183A5.442,5.442,0,0,1,212.033,87.463Z" transform="translate(-147.578 -82.28)" fill="#f0f0f0"/>
        <path id="Caminho_148" data-name="Caminho 148" d="M218.315,87.463a4.78,4.78,0,0,1-4.723,5.14,5.37,5.37,0,0,1-5.2-5.14,4.78,4.78,0,0,1,4.694-5.183,5.385,5.385,0,0,1,5.226,5.183Z" transform="translate(-144.819 -82.28)" fill="#f0f0f0"/>
        <path id="Caminho_149" data-name="Caminho 149" d="M224.61,87.463a4.823,4.823,0,0,1-4.737,5.14,5.327,5.327,0,0,1-5.169-5.14,4.823,4.823,0,0,1,4.751-5.183A5.313,5.313,0,0,1,224.61,87.463Z" transform="translate(-142.042 -82.28)" fill="#f0f0f0"/>
        <path id="Caminho_150" data-name="Caminho 150" d="M230.923,87.463a4.881,4.881,0,0,1-4.794,5.14A5.255,5.255,0,0,1,221,87.463a4.866,4.866,0,0,1,4.78-5.183A5.27,5.27,0,0,1,230.923,87.463Z" transform="translate(-139.271 -82.28)" fill="#f0f0f0"/>
        <path id="Caminho_151" data-name="Caminho 151" d="M237.218,87.463a4.924,4.924,0,0,1-4.823,5.14,5.226,5.226,0,0,1-5.082-5.14,4.91,4.91,0,0,1,4.823-5.183,5.212,5.212,0,0,1,5.082,5.183Z" transform="translate(-136.495 -82.28)" fill="#f0f0f0"/>
        <path id="Caminho_152" data-name="Caminho 152" d="M243.517,87.463a4.967,4.967,0,0,1-4.867,5.14,5.183,5.183,0,0,1-5.039-5.14,4.967,4.967,0,0,1,4.866-5.183,5.154,5.154,0,0,1,5.039,5.183Z" transform="translate(-133.724 -82.28)" fill="#f0f0f0"/>
        <path id="Caminho_153" data-name="Caminho 153" d="M249.827,87.463a5.01,5.01,0,0,1-4.91,5.14,5.111,5.111,0,0,1-5-5.14,5.01,5.01,0,0,1,4.91-5.183,5.126,5.126,0,0,1,5,5.183Z" transform="translate(-130.948 -82.28)" fill="#f0f0f0"/>
        <path id="Caminho_154" data-name="Caminho 154" d="M256.124,87.463a4.953,4.953,0,1,1-4.953-5.183,5.054,5.054,0,0,1,4.953,5.183Z" transform="translate(-128.175 -82.28)" fill="#f0f0f0"/>
        <path id="Caminho_155" data-name="Caminho 155" d="M262.422,87.463a5.1,5.1,0,0,1-4.982,5.14,5.01,5.01,0,0,1-4.91-5.14,5.1,5.1,0,0,1,4.982-5.183,5.011,5.011,0,0,1,4.91,5.183Z" transform="translate(-125.402 -82.28)" fill="#f0f0f0"/>
        <path id="Caminho_156" data-name="Caminho 156" d="M268.737,87.463A5.154,5.154,0,0,1,263.7,92.6a4.967,4.967,0,0,1-4.866-5.14,5.154,5.154,0,0,1,5.025-5.183,4.982,4.982,0,0,1,4.881,5.183Z" transform="translate(-122.632 -82.28)" fill="#f0f0f0"/>
        <path id="Caminho_157" data-name="Caminho 157" d="M275.027,87.463a5.212,5.212,0,0,1-5.068,5.14,4.939,4.939,0,0,1-4.838-5.14A5.212,5.212,0,0,1,270.2,82.28a4.924,4.924,0,0,1,4.823,5.183Z" transform="translate(-119.866 -82.28)" fill="#f0f0f0"/>
        <path id="Caminho_158" data-name="Caminho 158" d="M281.348,87.463a5.27,5.27,0,0,1-5.126,5.14,4.866,4.866,0,0,1-4.78-5.14,5.255,5.255,0,0,1,5.111-5.183,4.881,4.881,0,0,1,4.794,5.183Z" transform="translate(-117.088 -82.28)" fill="#f0f0f0"/>
        <path id="Caminho_159" data-name="Caminho 159" d="M287.666,87.463a5.327,5.327,0,0,1-5.212,5.14,4.838,4.838,0,0,1-4.751-5.14,5.313,5.313,0,0,1,5.154-5.183,4.823,4.823,0,0,1,4.809,5.183Z" transform="translate(-114.335 -82.28)" fill="#f0f0f0"/>
        <path id="Caminho_160" data-name="Caminho 160" d="M293.967,87.463a5.356,5.356,0,0,1-5.183,5.14,4.794,4.794,0,0,1-4.78-5.14,5.37,5.37,0,0,1,5.2-5.183,4.78,4.78,0,0,1,4.766,5.183Z" transform="translate(-111.565 -82.28)" fill="#f0f0f0"/>
        <path id="Caminho_161" data-name="Caminho 161" d="M300.261,87.463a5.428,5.428,0,0,1-5.241,5.14,4.737,4.737,0,0,1-4.665-5.14A5.414,5.414,0,0,1,295.6,82.28a4.751,4.751,0,0,1,4.665,5.183Z" transform="translate(-108.774 -82.28)" fill="#f0f0f0"/>
        <path id="Caminho_162" data-name="Caminho 162" d="M306.562,87.463a5.471,5.471,0,0,1-5.27,5.14,4.708,4.708,0,0,1-4.636-5.14,5.471,5.471,0,0,1,5.284-5.183,4.694,4.694,0,0,1,4.622,5.183Z" transform="translate(-106.004 -82.28)" fill="#f0f0f0"/>
        <path id="Caminho_163" data-name="Caminho 163" d="M312.841,87.463a5.514,5.514,0,0,1-5.313,5.14,4.665,4.665,0,0,1-4.521-5.14,5.529,5.529,0,0,1,5.327-5.183,4.65,4.65,0,0,1,4.506,5.183Z" transform="translate(-103.213 -82.28)" fill="#f0f0f0"/>
        <path id="Caminho_164" data-name="Caminho 164" d="M319.175,87.463a5.586,5.586,0,0,1-5.356,5.14,4.607,4.607,0,0,1-4.55-5.14,5.572,5.572,0,0,1,5.356-5.183,4.622,4.622,0,0,1,4.55,5.183Z" transform="translate(-100.462 -82.28)" fill="#f0f0f0"/>
        <path id="Caminho_165" data-name="Caminho 165" d="M325.476,87.463a5.644,5.644,0,0,1-5.4,5.14,4.578,4.578,0,0,1-4.507-5.14,5.644,5.644,0,0,1,5.4-5.183,4.578,4.578,0,0,1,4.507,5.183Z" transform="translate(-97.693 -82.28)" fill="#f0f0f0"/>
        <path id="Caminho_166" data-name="Caminho 166" d="M331.776,87.463a5.759,5.759,0,0,1-5.4,5.14,4.521,4.521,0,0,1-4.463-5.14,5.759,5.759,0,0,1,5.442-5.183,4.535,4.535,0,0,1,4.42,5.183Z" transform="translate(-94.907 -82.28)" fill="#f0f0f0"/>
        <path id="Caminho_167" data-name="Caminho 167" d="M338.09,87.463A5.759,5.759,0,0,1,332.6,92.6a4.492,4.492,0,0,1-4.42-5.14,5.759,5.759,0,0,1,5.485-5.183,4.492,4.492,0,0,1,4.42,5.183Z" transform="translate(-92.151 -82.28)" fill="#f0f0f0"/>
      </g>
      <path id="Caminho_168" data-name="Caminho 168" d="M160.82,79.74H417.634l-.014,7.026H160.834Z" transform="translate(-160.777 -65.659)" fill="#ffbe00"/>
      <path id="Caminho_169" data-name="Caminho 169" d="M160.81,74.86l5.356,7.026H412.239l5.414-7.026Z" transform="translate(-160.781 -67.805)" fill="#407bff"/>
      <g id="Grupo_4" data-name="Grupo 4" transform="translate(0.029 7.055)" opacity="0.4">
        <path id="Caminho_170" data-name="Caminho 170" d="M160.81,74.86l5.356,7.026H412.239l5.414-7.026Z" transform="translate(-160.81 -74.86)"/>
      </g>
      <path id="Caminho_171" data-name="Caminho 171" d="M160.79,69.96H417.676l-.014,7.055H160.819Z" transform="translate(-160.79 -69.96)" fill="#ffbe00"/>
      <g id="Grupo_5" data-name="Grupo 5" transform="translate(5.37 7.055)" opacity="0.8">
        <path id="Caminho_172" data-name="Caminho 172" d="M164.52,74.86h246.1l-.014,7.026H164.534Z" transform="translate(-164.52 -74.86)" fill="#fff"/>
      </g>
      <g id="Grupo_6" data-name="Grupo 6" transform="translate(4.996 152.401)" opacity="0.7">
        <rect id="Retângulo_651" data-name="Retângulo 651" width="246.548" height="3.096" fill="#fff"/>
      </g>
      <g id="Grupo_7" data-name="Grupo 7" transform="translate(5.5 306.04)" opacity="0.8">
        <rect id="Retângulo_652" data-name="Retângulo 652" width="246.03" height="3.081" fill="#fff"/>
      </g>
      <rect id="Retângulo_653" data-name="Retângulo 653" width="30.48" height="32.928" transform="translate(56.094 41.509)" fill="#c6c6c6"/>
      <rect id="Retângulo_654" data-name="Retângulo 654" width="30.48" height="32.928" transform="translate(114.635 41.509)" fill="#c6c6c6"/>
      <rect id="Retângulo_655" data-name="Retângulo 655" width="30.48" height="32.928" transform="translate(173.177 41.509)" fill="#c6c6c6"/>
      <rect id="Retângulo_656" data-name="Retângulo 656" width="30.48" height="32.928" transform="translate(56.094 90.807)" fill="#c6c6c6"/>
      <rect id="Retângulo_657" data-name="Retângulo 657" width="30.48" height="32.928" transform="translate(114.635 90.807)" fill="#c6c6c6"/>
      <rect id="Retângulo_658" data-name="Retângulo 658" width="30.48" height="32.928" transform="translate(173.177 90.807)" fill="#c6c6c6"/>
      <rect id="Retângulo_659" data-name="Retângulo 659" width="30.48" height="32.928" transform="translate(56.094 329.753)" fill="#c6c6c6"/>
      <rect id="Retângulo_660" data-name="Retângulo 660" width="30.48" height="32.928" transform="translate(114.635 329.753)" fill="#c6c6c6"/>
      <rect id="Retângulo_661" data-name="Retângulo 661" width="30.48" height="32.928" transform="translate(173.177 329.753)" fill="#c6c6c6"/>
      <rect id="Retângulo_662" data-name="Retângulo 662" width="30.48" height="32.928" transform="translate(23.44 399.078)" fill="#c6c6c6"/>
      <rect id="Retângulo_663" data-name="Retângulo 663" width="30.48" height="32.928" transform="translate(202.52 399.078)" fill="#c6c6c6"/>
      <rect id="Retângulo_664" data-name="Retângulo 664" width="30.48" height="32.928" transform="translate(56.094 181.441)" fill="#c6c6c6"/>
      <rect id="Retângulo_665" data-name="Retângulo 665" width="30.48" height="32.928" transform="translate(114.635 181.441)" fill="#c6c6c6"/>
      <rect id="Retângulo_666" data-name="Retângulo 666" width="30.48" height="32.928" transform="translate(173.177 181.441)" fill="#c6c6c6"/>
      <rect id="Retângulo_667" data-name="Retângulo 667" width="30.48" height="32.928" transform="translate(56.094 230.739)" fill="#c6c6c6"/>
      <rect id="Retângulo_668" data-name="Retângulo 668" width="30.48" height="32.928" transform="translate(114.635 230.739)" fill="#c6c6c6"/>
      <rect id="Retângulo_669" data-name="Retângulo 669" width="30.48" height="32.928" transform="translate(173.177 230.739)" fill="#c6c6c6"/>
      <g id="Grupo_8" data-name="Grupo 8" transform="translate(92.736 402.937)" opacity="0.8" style="isolation: isolate">
        <path id="Caminho_173" data-name="Caminho 173" d="M225.416,349.82h31.546l-.13,32.755H225.2Z" transform="translate(-225.2 -349.82)" fill="#fff"/>
      </g>
      <g id="Grupo_9" data-name="Grupo 9" transform="translate(130.243 402.937)" opacity="0.8" style="isolation: isolate">
        <path id="Caminho_174" data-name="Caminho 174" d="M251.6,349.82h32.841l-1.555,32.755H251.25Z" transform="translate(-251.25 -349.82)" fill="#fff"/>
      </g>
      <path id="Caminho_175" data-name="Caminho 175" d="M303.315,379.164H220.081l-.331-6.594h83.882Z" transform="translate(-134.86 63.122)" fill="#407bff"/>
      <g id="Grupo_10" data-name="Grupo 10" transform="translate(84.889 435.692)" opacity="0.8">
        <path id="Caminho_176" data-name="Caminho 176" d="M303.315,379.164H220.081l-.331-6.594h83.882Z" transform="translate(-219.75 -372.57)" fill="#ffbe00"/>
      </g>
      <path id="Caminho_177" data-name="Caminho 177" d="M307.576,383.973H218.05l-.36-6.493h90.217Z" transform="translate(-135.766 65.281)" fill="#ffbe00"/>
      <g id="Grupo_11" data-name="Grupo 11" transform="translate(78.67 383.918)" opacity="0.4">
        <path id="Caminho_178" data-name="Caminho 178" d="M311.535,344.025H215.848l-.418-7.415h96.48Z" transform="translate(-215.43 -336.61)" fill="#fff"/>
      </g>
      <path id="Caminho_179" data-name="Caminho 179" d="M215.72,341.76l13.865,11.6h70.477l11.345-11.6Z" transform="translate(-136.633 49.572)" fill="#263238"/>
      <path id="Caminho_180" data-name="Caminho 180" d="M220.22,345.8l4.9,38.874H229L227.433,345.8h0a7.875,7.875,0,0,0-7.2,0Z" transform="translate(-134.654 50.964)" fill="#ffbe00"/>
      <path id="Caminho_181" data-name="Caminho 181" d="M281.272,345.858l-4.794,38.874H272.59l1.44-38.874h0a6.565,6.565,0,0,1,7.2,0Z" transform="translate(-111.622 50.902)" fill="#ffbe00"/>
      <path id="Caminho_189" data-name="Caminho 189" d="M164.52,74.86h246.1l-.014,7.026H164.534Z" transform="translate(-159.15 -67.805)" fill="#ffbe00"/>
    </g>
  </g>
</svg>
