<svg xmlns="http://www.w3.org/2000/svg" width="1920.951" height="1065.136" viewBox="0 0 1920.951 1065.136">
  <g id="Grupo_97" data-name="Grupo 97" transform="translate(55.951 -175)">
    <path id="Caminho_496" data-name="Caminho 496" d="M0,0S738.8,317.922,1825.451,0c-1.1,2.721,0,757.136,0,757.136L0,755.136Z" transform="translate(-55.951 483)" fill="rgba(255,252,244,0.26)" opacity="0.997"/>
    <circle id="Elipse_1" data-name="Elipse 1" cx="72" cy="72" r="72" transform="translate(193 175)" fill="#fcbe0a" opacity="0.042"/>
    <circle id="Elipse_6" data-name="Elipse 6" cx="95.5" cy="95.5" r="95.5" transform="translate(1674 810)" fill="#fcbe0a" opacity="0.095"/>
    <path id="Polígono_1" data-name="Polígono 1" d="M15.5,0,31,27H0Z" transform="translate(1462.604 238.243) rotate(-45)" fill="#fcbe0a" opacity="0.449"/>
    <path id="Polígono_2" data-name="Polígono 2" d="M22.5,0,45,39H0Z" transform="translate(143.801 1041.621) rotate(-45)" fill="#fcbe0a"/>
    <circle id="Elipse_32" data-name="Elipse 32" cx="88.5" cy="88.5" r="88.5" transform="translate(1431 586)" fill="#fcbe0a" opacity="0.264"/>
    <circle id="Elipse_37" data-name="Elipse 37" cx="32.5" cy="32.5" r="32.5" transform="translate(870 646)" fill="#fcbe0a"/>
    <circle id="Elipse_36" data-name="Elipse 36" cx="12" cy="12" r="12" transform="translate(189 634)" fill="#fcbe0a"/>
  </g>
</svg>
