<svg xmlns="http://www.w3.org/2000/svg" width="737.086" height="717.277" viewBox="0 0 737.086 717.277">
  <g id="Grupo_95" data-name="Grupo 95" transform="translate(44.109 34.277)">
    <path id="Caminho_590" data-name="Caminho 590" d="M-17573-223s16.656-34.7,134.9-42.445,156.227-106.07,155.406-152.227,2.727-171.68,103.6-189.281,169.414-109.891,168.047-164.953,80.234-163.219,128.852-167.648-734.914,12.953-734.914,12.953l18.758,703.6Z" transform="translate(17573 906)" fill="#ffdf80" opacity="0.9"/>
    <path id="Caminho_55" data-name="Caminho 55" d="M321.506,135.413H421.618s23.472-8.837,20.435-32.254-38.476-3.9-38.476-3.9,10.733-32.677-23.583-23.4-37.666,41.661-37.666,41.661S297.242,109.639,321.506,135.413Z" transform="translate(-253.654 -2.825)" fill="#ffebaf"/>
    <path id="Caminho_56" data-name="Caminho 56" d="M370.352,161.692h66.091s15.5-5.836,13.494-21.3-25.405-2.577-25.405-2.577,7.088-21.558-15.575-15.446a33.524,33.524,0,0,0-24.853,27.5S354.336,144.7,370.352,161.692Z" transform="translate(-125.525 -11.233)" fill="#fff" opacity="0.2"/>
  </g>
</svg>
