<svg xmlns="http://www.w3.org/2000/svg" xmlns:xlink="http://www.w3.org/1999/xlink" width="374.911" height="288.37" viewBox="0 0 374.911 288.37">
  <defs>
    <filter id="Caminho_583" x="109.518" y="90.164" width="63.612" height="61.211" filterUnits="userSpaceOnUse">
      <feOffset dy="1" input="SourceAlpha"/>
      <feGaussianBlur stdDeviation="3" result="blur"/>
      <feFlood flood-opacity="0.161"/>
      <feComposite operator="in" in2="blur"/>
      <feComposite in="SourceGraphic"/>
    </filter>
    <filter id="Ret창ngulo_775" x="196.668" y="145.965" width="63.612" height="81.513" filterUnits="userSpaceOnUse">
      <feOffset dy="1" input="SourceAlpha"/>
      <feGaussianBlur stdDeviation="3" result="blur-2"/>
      <feFlood flood-opacity="0.161"/>
      <feComposite operator="in" in2="blur-2"/>
      <feComposite in="SourceGraphic"/>
    </filter>
    <filter id="Caminho_584" x="189.144" y="51.919" width="63.612" height="81.513" filterUnits="userSpaceOnUse">
      <feOffset dy="1" input="SourceAlpha"/>
      <feGaussianBlur stdDeviation="3" result="blur-3"/>
      <feFlood flood-opacity="0.161"/>
      <feComposite operator="in" in2="blur-3"/>
      <feComposite in="SourceGraphic"/>
    </filter>
  </defs>
  <g id="Grupo_116" data-name="Grupo 116" transform="translate(-30.68 -31)">
    <g id="Grupo_49" data-name="Grupo 49" transform="translate(125.998 192.487)">
      <g id="Grupo_47" data-name="Grupo 47" transform="translate(45.299 0)">
        <path id="Caminho_414" data-name="Caminho 414" d="M348.362,509.31a3.385,3.385,0,0,0,.5-5.166l1.313-29.309-6.685.75.388,28.668a3.4,3.4,0,0,0,4.485,5.057Z" transform="translate(-341.399 -437.804)" fill="#ce7a63"/>
        <path id="Caminho_415" data-name="Caminho 415" d="M204.564,569.809l3.8.669,3.76-14.357-4.985-.987Z" transform="translate(-185.406 -448.689)" fill="#ce7a63"/>
        <path id="Caminho_416" data-name="Caminho 416" d="M0,0H12.141V4.691H4.691A4.691,4.691,0,0,1,0,0H0Z" transform="translate(29.679 126.61) rotate(-170.029)" fill="#2f2e41"/>
        <path id="Caminho_417" data-name="Caminho 417" d="M171.421,575.363h3.863l1.838-14.9h-5.7Z" transform="translate(-162.707 -452.339)" fill="#ce7a63"/>
        <path id="Caminho_418" data-name="Caminho 418" d="M0,0H12.141V4.691H4.691A4.691,4.691,0,0,1,0,0H0Z" transform="translate(20.026 126.611) rotate(179.997)" fill="#2f2e41"/>
        <path id="Caminho_591" data-name="Caminho 591" d="M25.928,26.661s-.825,8.545.88,9.34-6.8,0-6.8,0v-9.34Z" transform="translate(-7.465 -9.945)" fill="#be735f"/>
        <path id="Caminho_419" data-name="Caminho 419" d="M380.947,622.8a1.509,1.509,0,0,1-.18-.011l-4.547-.374a1.538,1.538,0,0,1-1.337-1.783l4.2-23.531-2.837-14.959a.513.513,0,0,0-1.014.05l-3.547,39.9a1.551,1.551,0,0,1-1.642,1.4l-4.284-.16a1.54,1.54,0,0,1-1.429-1.459l-.288-47.82,22.208-2.776,1.551,23.96-.006.025-5.354,26.365A1.539,1.539,0,0,1,380.947,622.8Z" transform="translate(-355.8 -503.858)" fill="#2f2e41"/>
        <ellipse id="Elipse_10" data-name="Elipse 10" cx="7.739" cy="7.739" rx="7.739" ry="7.739" transform="translate(7.824 2.561)" fill="#ce7a63"/>
        <path id="Caminho_420" data-name="Caminho 420" d="M367.487,476.552a6.336,6.336,0,0,1-3.421-.979c-3.749-2.343-8.007-1.412-10.211-.648a1.538,1.538,0,0,1-1.33-.151,1.516,1.516,0,0,1-.7-1.119l-4.009-35.8a12.545,12.545,0,0,1,8.592-13.41h0q.318-.1.648-.189a12.467,12.467,0,0,1,10.389,1.8,12.668,12.668,0,0,1,5.409,9.249l3.375,36.042a1.514,1.514,0,0,1-.481,1.263C374.564,473.7,371.13,476.551,367.487,476.552Z" transform="translate(-344.632 -402.862)" fill="#4b55ba"/>
        <path id="Caminho_421" data-name="Caminho 421" d="M348.533,456.948l-9.044-.994a1.8,1.8,0,0,1-1.546-2.248l2.3-8.774a5,5,0,0,1,9.943,1.123l.342,9.035a1.8,1.8,0,0,1-2,1.858Z" transform="translate(-337.884 -414.281)" fill="#4b55ba"/>
        <path id="Caminho_422" data-name="Caminho 422" d="M418.687,505.4a3.385,3.385,0,0,0-.128-5.189l-2.229-29.254-6.55,1.474,3.845,28.488a3.4,3.4,0,0,0,5.062,4.479Z" transform="translate(-387.127 -435.147)" fill="#ce7a63"/>
        <path id="Caminho_423" data-name="Caminho 423" d="M400.562,452.138a1.8,1.8,0,0,1-.573-1.386l.342-9.035a5,5,0,0,1,9.943-1.123l2.3,8.774a1.8,1.8,0,0,1-1.546,2.248l-9.044.994A1.8,1.8,0,0,1,400.562,452.138Z" transform="translate(-380.42 -411.309)" fill="#4b55ba"/>
        <path id="Caminho_424" data-name="Caminho 424" d="M365.8,375.639a1.794,1.794,0,0,1-.409-.048l-.039-.01c-6.8-1.041-8.308-4.982-8.638-6.628-.342-1.7.047-3.349.926-3.988a4.906,4.906,0,0,1,.229-3.99,6.452,6.452,0,0,1,3.812-2.73,4.723,4.723,0,0,1,4.608-.278c3.692-1.366,5.1-.229,5.359.025,1.65.3,2.657.934,2.991,1.9.627,1.806-1.357,4.052-1.441,4.147l-.044.049-2.956.141a2,2,0,0,0-1.885,2.306h0a9.343,9.343,0,0,0,.3,1.057c.5,1.577.883,2.925.4,3.437a.791.791,0,0,1-.827.143c-.462-.123-.776-.1-.932.077-.243.271-.169.956.209,1.93a1.808,1.808,0,0,1-.33,1.842A1.754,1.754,0,0,1,365.8,375.639Z" transform="translate(-350.698 -357.309)" fill="#2f2e41"/>
      </g>
      <g id="Grupo_48" data-name="Grupo 48" transform="translate(0 83.086)">
        <path id="Caminho_399" data-name="Caminho 399" d="M267.97,694.663l-.012.077c-.014-.075-.028-.153-.041-.229-.024-.123-.044-.246-.064-.37a30.108,30.108,0,0,1,1.231-14.42q.455-1.357,1.036-2.664a29.538,29.538,0,0,1,6.191-9.046,12.738,12.738,0,0,1,2.871-2.2c.155-.082.311-.16.471-.232a5.254,5.254,0,0,1,3.15-.456,4.3,4.3,0,0,1,1.122.376c.124.061.244.127.362.2a6.225,6.225,0,0,1,2.724,4.168,9.724,9.724,0,0,1-.137,3.791q-.038.178-.081.355a19.728,19.728,0,0,1-.784,2.436C282.867,684.526,276.117,691.7,267.97,694.663Z" transform="translate(-244.365 -651.17)" fill="#f2f2f2"/>
        <path id="Caminho_400" data-name="Caminho 400" d="M284.595,666.347q-3.676,5.283-6.946,10.834t-6.1,11.33q-1.588,3.236-3.037,6.537c-.107.244.254.455.362.209q2.588-5.893,5.616-11.579t6.479-11.12q1.931-3.043,3.991-6C285.111,666.335,284.748,666.128,284.595,666.347Z" transform="translate(-245.056 -651.995)" fill="#fff"/>
        <path id="Caminho_401" data-name="Caminho 401" d="M305.611,692.229a11.477,11.477,0,0,1-7.545,4.373,10.916,10.916,0,0,1-2.519.05c-.268-.025-.27.393,0,.418a11.9,11.9,0,0,0,8.624-2.725,11.322,11.322,0,0,0,1.807-1.907c.161-.214-.2-.422-.362-.209Z" transform="translate(-263.449 -669.725)" fill="#fff"/>
        <path id="Caminho_402" data-name="Caminho 402" d="M274.125,712.761a9.6,9.6,0,0,1-1.06-1.96,10.136,10.136,0,0,1-.651-4.977q.455-1.357,1.036-2.664a.239.239,0,0,1,.019.236,9.172,9.172,0,0,0-.584,2.036,9.688,9.688,0,0,0,1.6,7.122.17.17,0,0,1,.028.164.228.228,0,0,1-.391.044Z" transform="translate(-247.693 -677.272)" fill="#fff"/>
        <path id="Caminho_403" data-name="Caminho 403" d="M304.181,666.3a9.728,9.728,0,0,0,.429,6.043.21.21,0,0,0,.285.078.214.214,0,0,0,.078-.285,9.257,9.257,0,0,1-.388-5.726.209.209,0,0,0-.4-.11Z" transform="translate(-269.302 -651.924)" fill="#fff"/>
        <path id="Caminho_404" data-name="Caminho 404" d="M255.078,654.74l.025.074c-.047-.06-.1-.122-.142-.183-.078-.1-.153-.2-.228-.3a30.106,30.106,0,0,1-5.608-13.341q-.228-1.413-.321-2.841a29.538,29.538,0,0,1,1.28-10.886,12.742,12.742,0,0,1,1.519-3.285c.1-.145.2-.286.309-.424a5.254,5.254,0,0,1,2.578-1.868,4.3,4.3,0,0,1,1.168-.187c.138,0,.275,0,.412.007a6.226,6.226,0,0,1,4.349,2.426,9.725,9.725,0,0,1,1.64,3.421q.049.175.093.352a19.76,19.76,0,0,1,.437,2.521C263.562,638.843,260.916,648.329,255.078,654.74Z" transform="translate(-231.525 -621.341)" fill="#f2f2f2"/>
        <path id="Caminho_405" data-name="Caminho 405" d="M267.821,621.192q-.8,6.386-1.118,12.821t-.142,12.868q.1,3.6.347,7.2c.018.265.436.285.418.017q-.446-6.421-.405-12.863t.572-12.856q.3-3.592.746-7.169C268.272,620.942,267.854,620.926,267.821,621.192Z" transform="translate(-243.692 -621)" fill="#fff"/>
        <path id="Caminho_406" data-name="Caminho 406" d="M274.924,640.242a11.478,11.478,0,0,1-4.65,7.377,10.917,10.917,0,0,1-2.207,1.214c-.249.1-.057.473.19.372a11.9,11.9,0,0,0,6.371-6.419,11.329,11.329,0,0,0,.714-2.528C275.384,639.994,274.966,639.979,274.924,640.242Z" transform="translate(-244.686 -634.049)" fill="#fff"/>
        <path id="Caminho_407" data-name="Caminho 407" d="M254.019,682.537a9.617,9.617,0,0,1-1.849-1.243,10.137,10.137,0,0,1-2.889-4.105q-.228-1.413-.321-2.841a.239.239,0,0,1,.127.2,9.174,9.174,0,0,0,.428,2.074,9.689,9.689,0,0,0,4.729,5.562.17.17,0,0,1,.1.132.228.228,0,0,1-.326.22Z" transform="translate(-231.68 -657.539)" fill="#fff"/>
        <path id="Caminho_408" data-name="Caminho 408" d="M257.623,628a9.727,9.727,0,0,0,3.187,5.153.21.21,0,0,0,.289-.064.214.214,0,0,0-.064-.289,9.257,9.257,0,0,1-3-4.89.209.209,0,0,0-.408.09Z" transform="translate(-237.611 -625.625)" fill="#fff"/>
        <path id="Caminho_409" data-name="Caminho 409" d="M227.071,695.69l.061.049-.219-.078c-.118-.04-.235-.084-.353-.128a30.108,30.108,0,0,1-11.91-8.221q-.953-1.068-1.8-2.221a29.539,29.539,0,0,1-4.784-9.862,12.745,12.745,0,0,1-.489-3.586c.006-.176.015-.35.032-.524a5.253,5.253,0,0,1,1.166-2.962,4.3,4.3,0,0,1,.883-.787c.114-.078.231-.149.351-.216a6.225,6.225,0,0,1,4.971-.3,9.726,9.726,0,0,1,3.224,2q.136.121.268.247a19.79,19.79,0,0,1,1.726,1.889C225.658,677.726,228.536,687.144,227.071,695.69Z" transform="translate(-203.337 -652.146)" fill="#f2f2f2"/>
        <path id="Caminho_410" data-name="Caminho 410" d="M214.174,668.721q2.764,5.812,5.962,11.4t6.811,10.919q2.022,2.984,4.17,5.879c.158.214.521.006.361-.211q-3.834-5.17-7.269-10.62t-6.442-11.141q-1.685-3.186-3.232-6.443C214.419,668.268,214.059,668.479,214.174,668.721Z" transform="translate(-207.839 -653.467)" fill="#fff"/>
        <path id="Caminho_411" data-name="Caminho 411" d="M238.232,674.322a11.478,11.478,0,0,1,.055,8.721,10.905,10.905,0,0,1-1.206,2.212c-.155.22.207.43.361.211a11.894,11.894,0,0,0,1.911-8.84,11.329,11.329,0,0,0-.76-2.515C238.487,673.865,238.127,674.077,238.232,674.322Z" transform="translate(-223.518 -657.301)" fill="#fff"/>
        <path id="Caminho_412" data-name="Caminho 412" d="M232.986,729.73a9.605,9.605,0,0,1-2.228-.052,10.136,10.136,0,0,1-4.645-1.9q-.953-1.068-1.8-2.221a.239.239,0,0,1,.215.1,9.166,9.166,0,0,0,1.478,1.517,9.688,9.688,0,0,0,6.98,2.14.17.17,0,0,1,.156.057.228.228,0,0,1-.156.361Z" transform="translate(-214.8 -692.61)" fill="#fff"/>
        <path id="Caminho_413" data-name="Caminho 413" d="M206.809,681.515a9.728,9.728,0,0,0,5.46,2.625c.113.015.208-.107.209-.209a.214.214,0,0,0-.209-.209,9.258,9.258,0,0,1-5.165-2.5c-.194-.187-.49.108-.3.3Z" transform="translate(-202.767 -662.204)" fill="#fff"/>
        <path id="Caminho_442" data-name="Caminho 442" d="M314.484,758.63H194.435a.315.315,0,1,1,0-.63H314.484a.315.315,0,1,1,0,.63Z" transform="translate(-194.12 -714.833)" fill="#3f3d56"/>
      </g>
    </g>
    <g id="Grupo_55" data-name="Grupo 55" transform="translate(149.197 123.523)">
      <g id="Grupo_51" data-name="Grupo 51" transform="translate(0 0)">
        <g transform="matrix(1, 0, 0, 1, -118.52, -92.52)" filter="url(#Caminho_583)">
          <path id="Caminho_583-2" data-name="Caminho 583" d="M5.016,0H40.6a5.016,5.016,0,0,1,5.016,5.016V38.2A5.016,5.016,0,0,1,40.6,43.211H5.016A5.016,5.016,0,0,1,0,38.2V5.016A5.016,5.016,0,0,1,5.016,0Z" transform="translate(118.52 98.16)" fill="#fff"/>
        </g>
        <g id="Grupo_46" data-name="Grupo 46" transform="translate(9.903)">
          <path id="Caminho_436" data-name="Caminho 436" d="M815.922,260.293H794.734a2.354,2.354,0,1,1,0-4.708h21.188a2.354,2.354,0,1,1,0,4.708Z" transform="translate(-792.38 -221.571)" fill="#ccc"/>
          <path id="Caminho_437" data-name="Caminho 437" d="M815.922,230.293H794.734a2.354,2.354,0,1,1,0-4.708h21.188a2.354,2.354,0,1,1,0,4.708Z" transform="translate(-792.38 -200.399)" fill="#ccc"/>
          <path id="Caminho_438" data-name="Caminho 438" d="M815.922,200.293H794.734a2.354,2.354,0,1,1,0-4.708h21.188a2.354,2.354,0,1,1,0,4.708Z" transform="translate(-792.38 -179.228)" fill="#ccc"/>
          <ellipse id="Elipse_13" data-name="Elipse 13" cx="6.768" cy="6.768" rx="6.768" ry="6.768" transform="translate(27.808)" fill="#3f3d56"/>
        </g>
      </g>
      <path id="Caminho_485" data-name="Caminho 485" d="M481.866,346.138a.766.766,0,0,1-.452-.15l-1.089-.791a.529.529,0,0,0-.622,0l-1.089.791a.769.769,0,0,1-1.183-.859l.416-1.28a.528.528,0,0,0-.192-.592l-1.089-.791a.769.769,0,0,1,.452-1.391h1.346a.528.528,0,0,0,.5-.366l.416-1.28a.769.769,0,0,1,1.462,0l.416,1.28a.528.528,0,0,0,.5.366h1.346a.769.769,0,0,1,.452,1.391l-1.089.791a.528.528,0,0,0-.192.592l.416,1.28a.757.757,0,0,1-.279.859.766.766,0,0,1-.452.15Z" transform="translate(-435.354 -335.86)" fill="#6c63ff"/>
    </g>
    <g id="Grupo_56" data-name="Grupo 56" transform="translate(236.348 179.526)">
      <g id="Grupo_52" data-name="Grupo 52" transform="translate(0 0)">
        <g transform="matrix(1, 0, 0, 1, -205.67, -148.53)" filter="url(#Ret창ngulo_775)">
          <rect id="Ret창ngulo_775-2" data-name="Ret창ngulo 775" width="45.612" height="63.513" rx="8" transform="translate(205.67 153.97)" fill="#fff"/>
        </g>
        <g id="Grupo_50" data-name="Grupo 50" transform="translate(8.161 0)">
          <path id="Caminho_426" data-name="Caminho 426" d="M592.1,325.358H567.381a2.5,2.5,0,0,1-2.5-2.5V311.086a2.5,2.5,0,0,1,2.5-2.5H592.1a2.5,2.5,0,0,1,2.5,2.5v11.771A2.5,2.5,0,0,1,592.1,325.358Z" transform="translate(-564.88 -294.288)" fill="#ffc002"/>
          <path id="Caminho_427" data-name="Caminho 427" d="M594.922,391.793H573.734a2.354,2.354,0,0,1,0-4.708h21.188a2.354,2.354,0,1,1,0,4.708Z" transform="translate(-569.467 -349.687)" fill="#ccc"/>
          <path id="Caminho_428" data-name="Caminho 428" d="M594.922,421.793H573.734a2.354,2.354,0,0,1,0-4.708h21.188a2.354,2.354,0,1,1,0,4.708Z" transform="translate(-569.467 -370.859)" fill="#ccc"/>
          <path id="Caminho_429" data-name="Caminho 429" d="M594.922,451.793H573.734a2.354,2.354,0,1,1,0-4.708h21.188a2.354,2.354,0,1,1,0,4.708Z" transform="translate(-569.467 -392.031)" fill="#ccc"/>
          <ellipse id="Elipse_11" data-name="Elipse 11" cx="6.768" cy="6.768" rx="6.768" ry="6.768" transform="translate(27.956)" fill="#ffc002"/>
        </g>
      </g>
      <path id="Caminho_585" data-name="Caminho 585" d="M481.922,346.211a.773.773,0,0,1-.456-.151l-1.1-.8a.534.534,0,0,0-.629,0l-1.1.8a.776.776,0,0,1-1.195-.868l.42-1.293a.533.533,0,0,0-.194-.6l-1.1-.8a.776.776,0,0,1,.456-1.4h1.359a.533.533,0,0,0,.509-.369l.42-1.293a.776.776,0,0,1,1.477,0l.42,1.293a.533.533,0,0,0,.509.369h1.359a.776.776,0,0,1,.456,1.4l-1.1.8a.533.533,0,0,0-.194.6l.42,1.293a.765.765,0,0,1-.282.868A.773.773,0,0,1,481.922,346.211Z" transform="translate(-437.235 -335.917)" fill="#ffe38e" stroke="#ffc002" stroke-width="1"/>
    </g>
    <g id="Grupo_54" data-name="Grupo 54" transform="translate(228.824 85.695)">
      <g id="Grupo_53" data-name="Grupo 53" transform="translate(-0.001 0)">
        <g transform="matrix(1, 0, 0, 1, -198.14, -54.69)" filter="url(#Caminho_584)">
          <path id="Caminho_584-2" data-name="Caminho 584" d="M5.016,0H40.6c2.77,0,5.016,3.3,5.016,7.372V56.14c0,4.072-2.246,7.372-5.016,7.372H5.016C2.246,63.513,0,60.212,0,56.14V7.372C0,3.3,2.246,0,5.016,0Z" transform="translate(198.14 59.92)" fill="#fff"/>
        </g>
        <path id="Caminho_431" data-name="Caminho 431" d="M889.922,413.793H868.734a2.354,2.354,0,1,1,0-4.708h21.188a2.354,2.354,0,0,1,0,4.708Z" transform="translate(-856.646 -395.523)" fill="#ccc"/>
        <path id="Caminho_432" data-name="Caminho 432" d="M889.922,443.793H868.734a2.354,2.354,0,1,1,0-4.708h21.188a2.354,2.354,0,0,1,0,4.708Z" transform="translate(-856.646 -416.695)" fill="#ccc"/>
        <path id="Caminho_433" data-name="Caminho 433" d="M887.1,491.357H862.381a2.5,2.5,0,0,1-2.5-2.5V477.085a2.5,2.5,0,0,1,2.5-2.5H887.1a2.5,2.5,0,0,1,2.5,2.5v11.771A2.5,2.5,0,0,1,887.1,491.357Z" transform="translate(-852.058 -441.748)" fill="#e6e6e6"/>
        <path id="Caminho_434" data-name="Caminho 434" d="M889.922,555.793H868.734a2.354,2.354,0,1,1,0-4.708h21.188a2.354,2.354,0,0,1,0,4.708Z" transform="translate(-856.646 -495.736)" fill="#ccc"/>
        <ellipse id="Elipse_12" data-name="Elipse 12" cx="6.768" cy="6.768" rx="6.768" ry="6.768" transform="translate(37.249)" fill="#3f3d56"/>
      </g>
      <path id="Caminho_586" data-name="Caminho 586" d="M481.866,346.138a.766.766,0,0,1-.452-.15l-1.089-.791a.529.529,0,0,0-.622,0l-1.089.791a.769.769,0,0,1-1.183-.859l.416-1.28a.528.528,0,0,0-.192-.592l-1.089-.791a.769.769,0,0,1,.452-1.391h1.346a.528.528,0,0,0,.5-.366l.416-1.28a.769.769,0,0,1,1.462,0l.416,1.28a.528.528,0,0,0,.5.366h1.346a.769.769,0,0,1,.452,1.391l-1.089.791a.528.528,0,0,0-.192.592l.416,1.28a.757.757,0,0,1-.279.859.766.766,0,0,1-.452.15Z" transform="translate(-435.982 -336.277)" fill="#6c63ff"/>
    </g>
    <circle id="Elipse_94" data-name="Elipse 94" cx="19" cy="19" r="19" transform="translate(40 31)" fill="#ffc002"/>
    <path id="Caminho_55" data-name="Caminho 55" d="M317.882,104.483h49.528s11.612-4.372,10.11-15.957S358.485,86.6,358.485,86.6s5.31-16.166-11.667-11.576a25.141,25.141,0,0,0-18.635,20.611S305.878,91.732,317.882,104.483Z" transform="translate(-283.654 -29.895)" fill="#ffebaf"/>
    <path id="Caminho_56" data-name="Caminho 56" d="M370.352,161.692h66.091s15.5-5.836,13.494-21.3-25.405-2.577-25.405-2.577,7.088-21.558-15.575-15.446a33.524,33.524,0,0,0-24.853,27.5S354.336,144.7,370.352,161.692Z" transform="translate(-44.525 -15.233)" fill="#fff" opacity="0.2"/>
  </g>
</svg>
